<?xml version="1.0" encoding="UTF-8"?>
<svg xmlns="http://www.w3.org/2000/svg" viewBox="0 0 900 900">
  <defs>
    <style>
      .cls-1 {
        fill: #6c6f71;
      }

      .cls-2 {
        fill: #fff;
      }

      .cls-3 {
        fill: #0068a6;
      }
    </style>
  </defs>
  <g id="Layer_2" data-name="Layer 2">
    <rect class="cls-2" width="900" height="900"/>
  </g>
  <g id="Layer_1" data-name="Layer 1">
    <g>
      <path class="cls-1" d="M486.487,659.131c-52.374-4.604-101.173-14.268-149.694-30.599-90.348-30.409-164.515-88.803-153.697-193.742,3.613-35.048,17.62-65.011,45.641-87.464,107.521-86.156,350.287-81.32,483.648-70.02l51.804-31.032c-140.421-17.679-323.726-21.955-461.866,15.3-92.04,24.822-178.854,75.725-180.673,181.814-3.015,175.863,214.727,215.735,350.237,221.461l25.78,1.089c32.889,1.39,64.642,1.263,96.232-.438l-66.858-2.805-40.552-3.565ZM336.507,376.936c0-16.067-13.04-29.093-29.126-29.093s-29.126,13.025-29.126,29.093,13.04,29.093,29.126,29.093,29.126-13.025,29.126-29.093ZM778.229,376.484c0-15.821-12.84-28.646-28.679-28.646s-28.679,12.825-28.679,28.646,12.84,28.646,28.679,28.646,28.679-12.825,28.679-28.646ZM489.013,557.034c20.364-13.54,28.273-36.117,25.36-60.181-2.529-20.892-16.966-40.18-39.364-48.892l-44.842-17.441c-7.606-2.958-14.038-12.472-14.236-19.597-.192-6.928,4.975-16.304,11.848-18.632,20.367-6.9,36.212,2.346,49.341,20.024l31.916-22.053c-26.095-40.554-80.058-47.737-115.905-20.118-17.693,13.632-20.847,36.852-16.745,57.987,3.338,17.196,17.158,33.437,36.303,41.52l43.634,18.421c9.75,4.116,16.267,11.844,16.035,21.694-.216,9.188-6.399,18.502-16.13,21.404-21.937,6.542-40.372-4.036-51.438-25.458l-33.345,22.313c18.406,46.452,84.172,51.213,117.566,29.01ZM668.085,554.594c18.781-14.316,25.075-36.675,21.565-59.935-3.011-19.957-17.496-38.363-39.133-46.775l-44.726-17.387c-7.527-2.926-13.891-12.526-14.146-19.604-.245-6.797,4.978-16.235,11.741-18.56,20.282-6.971,36.328,2.168,49.31,20.074l32.042-22.3c-26.404-40.394-80.185-47.618-116.024-19.888-17.574,13.598-20.696,36.861-16.675,57.76,3.308,17.196,17.202,33.482,36.151,41.567l45.47,19.4c9.665,4.124,15.275,13.208,14.265,22.803-.89,8.453-7.21,16.951-16.016,19.508-22.205,6.446-40.459-4.434-51.521-25.499l-32.706,21.539c14.826,46.211,85.551,53.865,120.406,27.296ZM778.191,555.102l.19-89.304c.038-17.8-13.109-31.413-29.993-30.661-16.194.721-27.745,13.787-27.707,30.769l.255,113.439c20.838-4.646,40.344-10.582,57.254-24.242ZM335.765,576.599l-.095-112.366c-.014-16.259-14.829-28.348-29.116-27.839-15.235.543-27.569,12.838-27.456,29.591l.597,88.334c16.85,12.739,36.039,19.235,56.069,22.281Z"/>
      <path class="cls-3" d="M486.487,659.131l40.552,3.565,66.858,2.805c-31.59,1.701-63.343,1.828-96.232.438l-25.78-1.089c-135.51-5.726-353.252-45.598-350.237-221.461,1.819-106.089,88.634-156.992,180.673-181.814,138.14-37.255,321.445-32.978,461.866-15.3l-51.804,31.032c-133.361-11.3-376.126-16.136-483.648,70.02-28.021,22.453-42.028,52.416-45.641,87.464-10.818,104.939,63.349,163.333,153.697,193.742,48.521,16.331,97.32,25.995,149.694,30.599Z"/>
      <path class="cls-1" d="M489.013,557.034c-33.394,22.204-99.16,17.443-117.566-29.01l33.345-22.313c11.066,21.422,29.501,32,51.438,25.458,9.731-2.902,15.914-12.217,16.13-21.404.232-9.85-6.285-17.578-16.035-21.694l-43.634-18.421c-19.145-8.082-32.965-24.324-36.303-41.52-4.102-21.135-.948-44.355,16.745-57.987,35.847-27.619,89.81-20.436,115.905,20.118l-31.916,22.053c-13.129-17.678-28.975-26.924-49.341-20.024-6.874,2.329-12.04,11.704-11.848,18.632.198,7.125,6.629,16.639,14.236,19.597l44.842,17.441c22.397,8.711,36.835,28,39.364,48.892,2.913,24.065-4.996,46.641-25.36,60.181Z"/>
      <path class="cls-1" d="M668.085,554.594c-34.855,26.569-105.58,18.915-120.406-27.296l32.706-21.539c11.062,21.065,29.316,31.945,51.521,25.499,8.807-2.557,15.126-11.055,16.016-19.508,1.01-9.596-4.6-18.68-14.265-22.803l-45.47-19.4c-18.949-8.085-32.843-24.371-36.151-41.567-4.02-20.899-.899-44.162,16.675-57.76,35.84-27.73,89.621-20.506,116.024,19.888l-32.042,22.3c-12.981-17.906-29.027-27.044-49.31-20.074-6.763,2.324-11.985,11.763-11.741,18.56.255,7.078,6.619,16.678,14.146,19.604l44.726,17.387c21.638,8.411,36.122,26.817,39.133,46.775,3.51,23.26-2.784,45.618-21.565,59.935Z"/>
      <path class="cls-1" d="M778.191,555.102c-16.911,13.66-36.416,19.596-57.254,24.242l-.255-113.439c-.038-16.982,11.512-30.048,27.707-30.769,16.884-.752,30.031,12.861,29.993,30.661l-.19,89.304Z"/>
      <path class="cls-1" d="M335.765,576.599c-20.03-3.046-39.219-9.542-56.069-22.281l-.597-88.334c-.113-16.752,12.221-29.048,27.456-29.591,14.287-.509,29.102,11.581,29.116,27.839l.095,112.366Z"/>
      <ellipse class="cls-1" cx="307.381" cy="376.936" rx="29.126" ry="29.093"/>
      <ellipse class="cls-1" cx="749.55" cy="376.484" rx="28.679" ry="28.646"/>
    </g>
  </g>
</svg>